<svg width="20" height="20" viewBox="0 0 20 20" fill="none" xmlns="http://www.w3.org/2000/svg">
<path d="M0 15V5C0 3.61929 1.11929 2.5 2.5 2.5H17.5C18.8807 2.5 20 3.61929 20 5V15C20 16.3807 18.8807 17.5 17.5 17.5H2.5C1.11929 17.5 0 16.3807 0 15ZM8.48827 6.36642C8.29777 6.23034 8.04718 6.21214 7.83901 6.31927C7.63084 6.4264 7.5 6.64089 7.5 6.875V13.125C7.5 13.3591 7.63084 13.5736 7.83901 13.6807C8.04718 13.7879 8.29777 13.7697 8.48827 13.6336L12.8633 10.5086C13.0275 10.3913 13.125 10.2018 13.125 10C13.125 9.79816 13.0275 9.60874 12.8633 9.49142L8.48827 6.36642Z" fill="#87CEFA"/>
</svg>
